<?xml version="1.0" standalone="no"?>
<!DOCTYPE svg PUBLIC "-//W3C//DTD SVG 20010904//EN"
 "http://www.w3.org/TR/2001/REC-SVG-20010904/DTD/svg10.dtd">
<svg version="1.0" xmlns="http://www.w3.org/2000/svg"
 width="240.000000pt" height="240.000000pt" viewBox="0 0 240.000000 240.000000"
 preserveAspectRatio="xMidYMid meet">

<g transform="translate(0.000000,240.000000) scale(0.100000,-0.100000)"
fill="#000000" stroke="none">
<path d="M1033 1911 c-114 -22 -126 -31 -117 -85 3 -23 10 -48 16 -56 7 -12 8
-11 4 5 -18 72 -18 93 1 103 28 14 237 46 256 39 10 -4 18 -18 18 -34 2 -25 2
-25 6 -5 11 55 -29 62 -184 33z"/>
<path d="M1337 1888 c-17 -13 -41 -67 -33 -75 2 -2 9 11 15 30 7 20 18 38 25
40 13 5 241 -74 255 -88 3 -4 -15 -68 -41 -143 -27 -74 -46 -137 -44 -139 5
-5 96 249 96 269 0 10 -8 22 -18 27 -15 8 -231 91 -236 91 -1 0 -10 -6 -19
-12z"/>
<path d="M953 1847 c-3 -6 4 -19 17 -29 22 -17 23 -17 36 -1 7 10 14 23 14 30
0 14 -58 14 -67 0z"/>
<path d="M1222 1825 c0 -16 2 -22 5 -12 2 9 2 23 0 30 -3 6 -5 -1 -5 -18z"/>
<path d="M1353 1825 c-7 -20 2 -29 21 -22 9 4 13 13 10 22 -8 19 -23 19 -31 0z"/>
<path d="M1348 1755 c50 -25 92 -49 92 -56 0 -6 -18 -52 -40 -102 -22 -49 -38
-92 -35 -95 2 -3 14 16 25 42 11 25 29 67 40 92 33 75 30 79 -66 124 -48 22
-92 40 -98 39 -6 0 31 -20 82 -44z"/>
<path d="M1232 1765 c0 -16 2 -22 5 -12 2 9 2 23 0 30 -3 6 -5 -1 -5 -18z"/>
<path d="M897 1705 c-60 -42 -111 -83 -114 -91 -5 -15 36 -83 65 -106 13 -11
14 -11 7 2 -5 8 -19 29 -32 46 -13 17 -23 39 -23 50 1 24 179 149 212 149 17
0 42 -29 112 -127 49 -70 92 -126 94 -123 8 7 -183 270 -198 273 -9 1 -64 -32
-123 -73z"/>
<path d="M1246 1685 c3 -27 12 -79 19 -115 12 -57 13 -59 9 -15 -3 28 -12 79
-19 115 -12 57 -13 59 -9 15z"/>
<path d="M1354 1699 c-14 -16 -15 -23 -6 -26 6 -3 10 -9 6 -14 -3 -5 5 -7 18
-6 18 3 23 10 23 32 0 36 -16 41 -41 14z"/>
<path d="M845 1599 c-8 -25 6 -42 28 -34 18 7 30 32 21 46 -10 17 -43 9 -49
-12z"/>
<path d="M673 1453 c284 -2 750 -2 1035 0 284 1 51 2 -518 2 -569 0 -802 -1
-517 -2z"/>
<path d="M70 1316 c0 -8 10 -16 23 -18 17 -2 22 -10 22 -33 0 -23 -4 -30 -20
-30 -26 0 -42 -24 -24 -36 48 -30 89 6 89 79 l0 52 -45 0 c-32 0 -45 -4 -45
-14z"/>
<path d="M200 1264 c-17 -36 -30 -68 -30 -70 0 -12 41 -2 46 11 8 20 63 20 70
0 6 -15 44 -22 44 -7 0 4 -12 35 -27 70 -22 50 -32 62 -51 62 -19 0 -28 -12
-52 -66z m64 1 c3 -9 0 -15 -9 -15 -8 0 -15 7 -15 15 0 8 4 15 9 15 5 0 11 -7
15 -15z"/>
<path d="M360 1310 c-58 -58 28 -155 95 -107 26 20 10 37 -29 30 -29 -4 -35
-2 -41 17 -10 32 18 59 44 43 15 -10 22 -9 31 2 18 22 3 35 -41 35 -26 0 -46
-7 -59 -20z"/>
<path d="M500 1260 c0 -63 2 -70 20 -70 13 0 20 7 20 18 0 31 11 33 32 7 12
-15 30 -25 45 -25 l25 0 -26 34 c-31 42 -32 46 -5 80 l20 26 -25 0 c-15 0 -31
-8 -38 -20 -7 -11 -16 -20 -20 -20 -5 0 -8 9 -8 20 0 13 -7 20 -20 20 -18 0
-20 -7 -20 -70z"/>
<path d="M735 1310 c-65 -71 42 -164 110 -95 50 49 19 115 -53 115 -26 0 -45
-7 -57 -20z m84 -29 c13 -24 -8 -55 -35 -49 -23 4 -30 33 -14 53 17 20 37 19
49 -4z"/>
<path d="M892 1263 c3 -62 5 -68 26 -71 18 -3 22 1 22 22 0 22 4 26 30 26 20
0 30 5 30 15 0 10 -10 15 -30 15 -20 0 -30 5 -30 15 0 10 11 15 35 15 24 0 35
5 35 15 0 12 -13 15 -60 15 l-61 0 3 -67z"/>
<path d="M1100 1259 l0 -72 50 5 c59 6 90 30 90 70 0 44 -31 68 -90 68 l-50 0
0 -71z m84 25 c9 -8 16 -19 16 -23 0 -13 -24 -31 -42 -31 -14 0 -18 8 -18 35
0 39 17 46 44 19z"/>
<path d="M1263 1263 c2 -62 4 -68 25 -71 21 -3 22 0 22 67 0 68 -1 71 -24 71
-24 0 -24 -2 -23 -67z"/>
<path d="M1357 1270 c-15 -34 -27 -66 -27 -71 0 -14 26 -11 40 6 16 20 60 19
75 -1 6 -9 19 -15 28 -13 14 4 12 13 -13 69 -23 51 -34 66 -53 68 -21 3 -27
-5 -50 -58z m63 -12 c0 -5 -7 -8 -15 -8 -17 0 -18 2 -9 25 5 13 8 14 15 3 5
-7 9 -16 9 -20z"/>
<path d="M1500 1260 c0 -63 2 -70 20 -70 16 0 20 7 21 33 0 32 0 32 16 10 8
-13 21 -23 28 -23 7 0 20 10 28 23 16 22 16 22 16 -10 1 -26 5 -33 21 -33 18
0 20 7 20 70 0 64 -2 70 -20 70 -13 0 -28 -13 -41 -35 -12 -19 -22 -35 -24
-35 -2 0 -12 16 -24 35 -13 22 -28 35 -41 35 -18 0 -20 -6 -20 -70z"/>
<path d="M1712 1307 c-29 -30 -28 -62 3 -92 65 -66 172 16 115 88 -28 36 -86
38 -118 4z m78 -22 c19 -23 8 -50 -20 -50 -19 0 -26 6 -28 24 -5 35 26 53 48
26z"/>
<path d="M1870 1260 c0 -63 2 -70 20 -70 16 0 20 7 20 30 0 17 2 30 5 30 3 0
18 -14 34 -32 43 -48 61 -34 61 47 0 63 -1 65 -25 65 -21 0 -25 -5 -25 -31 l0
-31 -26 31 c-14 17 -34 31 -45 31 -17 0 -19 -8 -19 -70z"/>
<path d="M2040 1259 l0 -72 50 5 c62 6 90 29 90 74 0 43 -30 64 -92 64 l-48 0
0 -71z m90 26 c18 -22 3 -55 -26 -55 -20 0 -24 5 -24 28 0 43 25 57 50 27z"/>
<path d="M2212 1318 c-28 -28 -9 -61 41 -73 17 -5 25 -11 19 -17 -5 -5 -19 -5
-35 1 -20 8 -27 7 -31 -6 -8 -21 10 -33 51 -33 66 0 86 67 26 85 -40 11 -44
28 -6 23 20 -2 29 2 31 15 3 14 -4 17 -40 17 -24 0 -49 -5 -56 -12z"/>
<path d="M820 1038 c1 -34 3 -39 11 -25 5 9 19 17 30 17 34 0 21 44 -13 48
-27 3 -28 1 -28 -40z m48 15 c2 -8 -5 -13 -17 -13 -12 0 -21 6 -21 16 0 18 31
15 38 -3z"/>
<path d="M904 1054 c-7 -27 14 -54 42 -54 19 0 36 27 32 52 -2 18 -10 24 -35
26 -28 3 -33 0 -39 -24z m61 -9 c0 -23 -34 -33 -45 -14 -13 20 1 40 24 37 13
-2 21 -10 21 -23z"/>
<path d="M1005 1044 c3 -36 15 -60 15 -31 0 21 9 21 32 0 20 -18 25 -4 6 15
-10 10 -10 17 0 32 15 24 5 26 -20 3 -17 -15 -18 -15 -18 0 0 10 -4 17 -9 17
-5 0 -8 -16 -6 -36z"/>
<path d="M1092 1043 c3 -33 7 -38 31 -41 15 -2 27 1 27 7 0 6 -9 11 -20 11
-27 0 -25 18 3 23 l22 4 -22 2 c-13 0 -23 5 -23 10 0 5 10 12 23 14 15 3 12 5
-11 6 -32 1 -33 0 -30 -36z"/>
<path d="M1170 1046 c0 -19 5 -38 10 -41 6 -3 10 1 10 9 0 20 9 20 29 2 14
-13 16 -11 16 22 0 34 -2 37 -32 40 -32 3 -33 2 -33 -32z m50 9 c0 -8 -7 -15
-15 -15 -8 0 -15 7 -15 15 0 8 7 15 15 15 8 0 15 -7 15 -15z"/>
<path d="M1307 1073 c-12 -12 -7 -50 8 -63 9 -7 23 -9 37 -4 22 8 22 8 -7 14
-37 7 -44 45 -8 45 12 0 25 4 29 8 4 4 -6 7 -23 7 -16 0 -33 -3 -36 -7z"/>
<path d="M1392 1043 c-2 -40 0 -43 23 -43 14 0 25 5 25 10 0 6 -9 10 -19 10
-15 0 -21 8 -24 33 -3 28 -4 26 -5 -10z"/>
<path d="M1461 1048 c-1 -29 3 -38 19 -43 12 -4 27 -1 35 5 17 14 20 70 5 70
-5 0 -10 -14 -10 -31 0 -41 -32 -36 -41 6 -6 29 -7 29 -8 -7z"/>
<path d="M1552 1043 c3 -35 6 -38 33 -38 27 0 30 3 33 38 3 37 3 37 -33 37
-36 0 -36 0 -33 -37z m48 17 c0 -5 -7 -10 -15 -10 -8 0 -15 5 -15 10 0 6 7 10
15 10 8 0 15 -4 15 -10z m5 -30 c3 -5 -3 -10 -14 -10 -12 0 -21 5 -21 10 0 6
6 10 14 10 8 0 18 -4 21 -10z"/>
<path d="M312 1033 c87 -2 229 -2 315 0 87 1 16 3 -157 3 -173 0 -244 -2 -158
-3z"/>
<path d="M1797 1033 c79 -2 207 -2 285 0 79 1 15 3 -142 3 -157 0 -221 -2
-143 -3z"/>
<path d="M440 730 c-6 -11 -7 -20 -3 -20 4 0 -5 -9 -21 -19 -16 -11 -35 -17
-41 -14 -7 2 -16 0 -20 -6 -3 -6 0 -14 9 -17 20 -8 36 -57 25 -75 -5 -8 -9
-20 -9 -28 0 -11 3 -10 13 3 10 13 26 18 66 18 29 -1 51 1 48 4 -3 3 -23 5
-45 6 -23 0 -43 5 -45 12 -3 7 11 10 44 8 31 -3 49 0 49 7 0 6 -18 11 -42 11
-53 0 -41 12 20 21 l47 6 -42 2 c-59 1 -54 21 5 22 l47 1 -35 9 c-19 5 -46 6
-60 3 l-25 -6 24 21 c13 12 18 21 11 21 -7 0 -10 7 -6 15 8 22 -1 18 -14 -5z"/>
<path d="M1867 743 c-4 -3 -7 -13 -7 -20 0 -21 -25 -43 -49 -43 -12 0 -21 -6
-21 -12 0 -9 -4 -8 -10 2 -5 8 -10 11 -10 5 0 -5 12 -21 25 -34 21 -19 24 -30
20 -60 -3 -20 -2 -30 1 -23 3 6 18 13 32 13 16 1 20 3 10 6 -9 2 -18 10 -21
16 -3 9 9 11 44 9 31 -3 49 0 49 7 0 6 -17 11 -37 11 -51 0 -30 18 27 23 l45
4 -47 1 c-65 3 -61 22 5 23 l52 1 -45 9 c-25 5 -51 7 -59 4 -10 -4 -9 1 4 15
12 13 14 20 5 20 -7 0 -10 7 -6 15 6 16 3 19 -7 8z"/>
<path d="M1553 558 c-9 -18 -16 -40 -15 -48 2 -11 1 -12 -6 -2 -5 7 -23 11
-40 10 l-32 -2 25 -24 c21 -19 29 -38 27 -62 0 -3 -4 -14 -8 -25 -7 -18 -6
-19 10 -6 10 9 39 14 69 14 47 0 49 0 18 7 -19 5 -40 6 -46 3 -7 -2 -15 2 -17
9 -4 10 6 12 43 10 31 -3 49 0 49 7 0 6 -18 11 -42 11 -32 0 -39 3 -28 10 8 5
32 10 52 10 20 0 39 3 41 8 3 4 -15 5 -39 3 -27 -2 -44 1 -44 8 0 6 20 11 48
12 l47 1 -35 9 c-19 5 -46 6 -60 3 l-25 -6 24 21 c13 12 18 21 11 21 -7 0 -10
7 -6 15 10 27 -3 16 -21 -17z"/>
<path d="M1893 573 c9 -2 25 -2 35 0 9 3 1 5 -18 5 -19 0 -27 -2 -17 -5z"/>
<path d="M810 525 c-10 -26 -67 -58 -85 -47 -5 3 1 -7 14 -21 13 -15 27 -24
32 -22 4 3 3 -11 -3 -31 -5 -20 -7 -38 -4 -42 3 -3 6 -1 6 5 0 6 25 8 60 7 35
-2 60 1 60 6 0 6 -23 10 -51 10 -61 0 -58 19 4 22 l42 1 -45 6 c-33 4 -40 8
-27 14 10 4 34 7 52 7 19 0 37 5 40 10 4 6 -12 10 -41 10 -54 0 -50 16 6 23
l35 4 -37 1 c-37 2 -65 22 -31 22 17 1 17 1 1 14 -10 7 -15 16 -11 19 3 4 3 7
-1 7 -3 0 -11 -11 -16 -25z"/>
<path d="M1180 466 c-10 -27 -45 -51 -60 -41 -6 3 -10 1 -10 -5 0 -6 -6 -8
-12 -4 -7 4 0 -5 15 -21 24 -25 27 -34 23 -69 -3 -23 -3 -34 2 -24 5 13 19 16
65 14 31 -1 57 2 57 6 0 4 -23 8 -51 8 -28 0 -48 4 -45 9 4 5 0 11 -6 14 -7 2
14 2 46 -1 45 -4 57 -2 51 8 -4 7 -21 10 -40 8 -19 -2 -31 0 -29 4 3 4 23 8
44 8 21 0 42 5 45 10 4 6 -12 10 -40 10 -58 0 -51 20 8 21 l42 1 -44 10 c-30
7 -40 13 -31 18 11 7 10 11 -3 25 -16 15 -18 15 -27 -9z"/>
</g>
</svg>
